<?xml version="1.0" encoding="utf-8"?>
<!-- Generator: Adobe Illustrator 24.2.1, SVG Export Plug-In . SVG Version: 6.00 Build 0)  -->
<svg version="1.1" id="_2" xmlns="http://www.w3.org/2000/svg" xmlns:xlink="http://www.w3.org/1999/xlink" x="0px" y="0px"
	 viewBox="0 0 250 250" style="enable-background:new 0 0 250 250;" xml:space="preserve">
<style type="text/css">
	.st0{fill:none;stroke:#ADE5D8;stroke-width:5;stroke-linecap:round;stroke-linejoin:round;}
	.st1{fill:none;stroke:#DAF3ED;stroke-width:20;stroke-linecap:round;stroke-linejoin:round;}
	.st2{fill:none;stroke:#ADE5D8;stroke-width:1.25;stroke-linecap:round;stroke-linejoin:round;}
	.st3{fill:none;stroke:#ADE5D8;stroke-width:20;stroke-linecap:round;stroke-linejoin:round;}
	.st4{fill:none;stroke:#ADE5D8;stroke-width:2.5;stroke-linecap:round;stroke-linejoin:round;}
	.st5{fill:none;stroke:#ADE5D8;stroke-width:2.5;stroke-miterlimit:10;}
	.st6{fill:none;stroke:#ADE5D8;stroke-width:1.25;stroke-miterlimit:10;}
	.st7{fill:none;stroke:#ADE5D8;stroke-width:15;stroke-linecap:round;stroke-linejoin:round;}
	.st8{fill:none;}
	.st9{fill:none;stroke:#C9EEE5;stroke-width:15;stroke-linecap:round;stroke-linejoin:round;}
	.st10{fill:none;stroke:#C9EEE5;stroke-width:12.5;stroke-linecap:round;stroke-linejoin:round;}
	.st11{fill:none;stroke:#C9EEE5;stroke-width:10;stroke-linecap:round;stroke-linejoin:round;}
	.st12{fill:none;stroke:#DAF3ED;stroke-width:7;stroke-linejoin:round;}
	.st13{fill:#C9EEE5;stroke:#ADE5D8;stroke-width:2.5;stroke-miterlimit:10;}
</style>
<path class="st0" d="M112.5,211.3V100c0-3.5,2.8-6.3,6.3-6.3l0,0h87.5c3.5,0,6.3,2.8,6.3,6.3l0,0v111.3"/>
<path class="st1" d="M85,95l6.2,6.2c4.9,4.9,12.8,4.9,17.7,0L120,90"/>
<circle class="st2" cx="175" cy="128.8" r="11.3"/>
<path class="st3" d="M85,107.5c0-6.9-5.6-12.5-12.5-12.5l0,0c-6.9,0-12.5,5.6-12.5,12.5v98.8V170c0-6.9,5.6-12.5,12.5-12.5l0,0
	c6.9,0,12.5,5.6,12.5,12.5v36.3V107.5z"/>
<line class="st4" x1="131.3" y1="147.5" x2="131.3" y2="141.3"/>
<line class="st4" x1="193.8" y1="147.5" x2="193.8" y2="141.3"/>
<line class="st4" x1="137.5" y1="135" x2="150" y2="135"/>
<line class="st4" x1="137.5" y1="128.8" x2="150" y2="128.8"/>
<line class="st4" x1="137.5" y1="122.5" x2="150" y2="122.5"/>
<circle class="st2" cx="175" cy="128.8" r="8.1"/>
<path class="st4" d="M163.8,116.3h-32.5c-3.5,0-6.3,2.8-6.3,6.3V135c0,3.5,2.8,6.3,6.3,6.3h32.5c1.1,0,2.1,0.3,3,0.8
	c5,3.1,11.3,3.1,16.4,0c0.9-0.5,1.9-0.8,3-0.8h7.5c3.5,0.1,6.3-2.7,6.3-6.1c0,0,0-0.1,0-0.1v-12.5c0-3.5-2.8-6.3-6.3-6.3h-7.5
	c-1.1,0-2.1-0.3-3-0.8c-5-3.1-11.3-3.1-16.4,0C165.9,116,164.9,116.3,163.8,116.3z"/>
<line class="st0" x1="112.5" y1="150" x2="212.5" y2="150"/>
<path class="st4" d="M143.8,92.3h37.5c3.5,0,6.3-2.8,6.3-6.3l0,0V67.3c0-3.5-2.8-6.3-6.3-6.3h-3.3c-1.9,0-3.6-0.8-4.8-2.3l-2.5-3
	c-1.2-1.4-2.9-2.3-4.8-2.3h-6.6c-1.9,0-3.6,0.8-4.8,2.3l-2.5,3c-1.2,1.4-2.9,2.3-4.8,2.3h-3.3c-3.5,0-6.3,2.8-6.3,6.3V86
	C137.5,89.5,140.3,92.3,143.8,92.3L143.8,92.3z"/>
<circle class="st2" cx="162.5" cy="76" r="12.5"/>
<circle class="st2" cx="162.5" cy="76" r="9.4"/>
<circle class="st5" cx="162.5" cy="187.5" r="25"/>
<path class="st6" d="M149.2,166.6c11.7,0.1,32.4,25.2,29.6,39.8"/>
<path class="st6" d="M143.1,203.5c-2.5-12,24.5-37.2,35.4-35"/>
<path class="st6" d="M160.6,212.5c0.6-27.1,2.1-29.1,7.3-33.4c3.5-2.9,11.2-4,19.5,6.1"/>
<path class="st6" d="M138.4,181.4c4.7-5.4,12.9-4.8,20.4-10.8c4-3.2,5.5-4.5,5.7-8.1"/>
<path class="st7" d="M85,95l6.2,6.2c4.9,4.9,12.8,4.9,17.7,0L120,90"/>
<line class="st7" x1="60" y1="95" x2="30" y2="125"/>
<line class="st3" x1="72.5" y1="107.5" x2="72.5" y2="157.5"/>
<rect class="st8" width="250" height="250"/>
<path class="st9" d="M85,107.5c0-6.9-5.6-12.5-12.5-12.5l0,0c-6.9,0-12.5,5.6-12.5,12.5v98.8V170c0-6.9,5.6-12.5,12.5-12.5l0,0
	c6.9,0,12.5,5.6,12.5,12.5v36.3V107.5z"/>
<line class="st10" x1="72.5" y1="107.5" x2="72.5" y2="157.5"/>
<line class="st11" x1="60" y1="95" x2="30" y2="125"/>
<path class="st11" d="M85,95l6.2,6.2c4.9,4.9,12.8,4.9,17.7,0L120,90"/>
<circle class="st12" cx="72.5" cy="71.3" r="18.8"/>
<circle class="st13" cx="72.5" cy="71.3" r="18.8"/>
</svg>
