<svg width="250" height="250" viewBox="0 0 250 250" fill="none" xmlns="http://www.w3.org/2000/svg">
<path d="M180 215H70C58.95 215 50 206.05 50 195V55C50 43.95 58.95 35 70 35H180C191.05 35 200 43.95 200 55V195C200 206.05 191.05 215 180 215Z" fill="#CCCCCC" stroke="#999999" stroke-width="5" stroke-miterlimit="10"/>
<path d="M180 205H70C64.48 205 60 200.52 60 195V55C60 49.48 64.48 45 70 45H180C185.52 45 190 49.48 190 55V195C190 200.52 185.52 205 180 205Z" fill="white" stroke="#999999" stroke-width="2" stroke-miterlimit="10"/>
<path d="M180 60H70C68.62 60 67.5 58.88 67.5 57.5V55C67.5 53.62 68.62 52.5 70 52.5H180C181.38 52.5 182.5 53.62 182.5 55V57.5C182.5 58.88 181.38 60 180 60Z" fill="#999999"/>
<path d="M77.5 132.5C81.6421 132.5 85 129.142 85 125C85 120.858 81.6421 117.5 77.5 117.5C73.3579 117.5 70 120.858 70 125C70 129.142 73.3579 132.5 77.5 132.5Z" fill="white" stroke="#999999" stroke-width="2" stroke-miterlimit="10"/>
<path d="M77.5 122.5V127.5" stroke="#999999" stroke-width="2" stroke-miterlimit="10"/>
<path d="M125 192.5C134.665 192.5 142.5 184.665 142.5 175C142.5 165.335 134.665 157.5 125 157.5C115.335 157.5 107.5 165.335 107.5 175C107.5 184.665 115.335 192.5 125 192.5Z" fill="#CCCCCC" stroke="#999999" stroke-width="2" stroke-miterlimit="10"/>
<path d="M142.5 175C142.5 184.66 134.66 192.5 125 192.5C115.34 192.5 107.5 184.66 107.5 175H142.5Z" fill="#999999"/>
<path d="M95.03 99.84C95.03 97.47 95.72 95.54 97.11 94.05C98.5 92.56 100.32 91.82 102.59 91.82C104.75 91.82 106.49 92.54 107.81 93.98C109.13 95.42 109.79 97.27 109.79 99.53C109.79 101.89 109.1 103.8 107.73 105.27C107.65 105.36 107.56 105.45 107.48 105.53L111.33 109.24H106.55L104.54 107.19C103.86 107.37 103.13 107.46 102.35 107.46C100.18 107.46 98.42 106.75 97.07 105.33C95.72 103.91 95.03 102.08 95.03 99.84ZM98.42 99.67C98.42 101.14 98.77 102.34 99.48 103.28C100.19 104.22 101.16 104.68 102.4 104.68C103.66 104.68 104.65 104.23 105.35 103.34C106.05 102.45 106.4 101.24 106.4 99.73C106.4 98.15 106.06 96.91 105.37 95.99C104.68 95.07 103.72 94.62 102.48 94.62C101.22 94.62 100.22 95.09 99.5 96.03C98.78 96.97 98.42 98.18 98.42 99.67Z" fill="#999999"/>
<path d="M128.53 105.53C126.95 106.81 125.13 107.45 123.05 107.45C121.32 107.45 119.94 107.04 118.93 106.22C117.92 105.4 117.41 104.28 117.41 102.85C117.41 100.87 118.63 99.41 121.06 98.46C119.84 97.5 119.22 96.45 119.22 95.31C119.22 94.25 119.63 93.4 120.44 92.78C121.25 92.16 122.35 91.84 123.74 91.84C125.01 91.84 126.04 92.15 126.84 92.76C127.64 93.37 128.04 94.16 128.04 95.12C128.04 96.66 127.14 97.8 125.33 98.56C126.72 99.19 127.94 100.27 128.98 101.81C130.06 100.45 130.6 98.8 130.6 96.85C130.6 96.31 130.53 95.82 130.39 95.39H133.1C133.24 95.77 133.31 96.24 133.31 96.8C133.31 99.38 132.34 101.72 130.39 103.81C131.15 104.62 131.87 105.03 132.56 105.03C133.25 105.03 133.87 104.89 134.44 104.61V107.02C133.72 107.31 132.95 107.46 132.12 107.46C130.84 107.45 129.65 106.81 128.53 105.53ZM127.15 103.52C126.03 101.73 124.61 100.48 122.89 99.77C121.37 100.47 120.6 101.46 120.6 102.73C120.6 103.43 120.84 103.99 121.32 104.41C121.8 104.83 122.43 105.05 123.2 105.05C124.65 105.05 125.96 104.54 127.15 103.52ZM123.39 97.35C124.61 96.9 125.23 96.23 125.23 95.33C125.23 94.92 125.08 94.59 124.79 94.33C124.5 94.07 124.14 93.95 123.74 93.95C123.26 93.95 122.86 94.09 122.54 94.37C122.22 94.65 122.06 94.99 122.06 95.39C122.05 96.18 122.5 96.83 123.39 97.35Z" fill="#999999"/>
<path d="M155.61 107.21H152.09L150.96 103.74H145.46L144.35 107.21H140.85L146.39 92.08H150.18L155.61 107.21ZM150.2 101.25L148.48 96.01C148.37 95.68 148.29 95.24 148.25 94.69H148.16C148.12 95.13 148.03 95.56 147.9 95.97L146.17 101.25H150.2Z" fill="#999999"/>
</svg>