<svg width="250" height="250" viewBox="0 0 250 250" fill="none" xmlns="http://www.w3.org/2000/svg">
<path d="M112.5 211.25V100C112.5 96.55 115.3 93.75 118.75 93.75H206.25C209.7 93.75 212.5 96.55 212.5 100V211.25" stroke="#C4C4C4" stroke-width="5" stroke-miterlimit="10" stroke-linecap="round" stroke-linejoin="round"/>
<path d="M85 95L91.16 101.16C96.04 106.04 103.96 106.04 108.84 101.16L120 90" stroke="white" stroke-width="20" stroke-miterlimit="10" stroke-linecap="round" stroke-linejoin="round"/>
<path d="M175 140C181.213 140 186.25 134.963 186.25 128.75C186.25 122.537 181.213 117.5 175 117.5C168.787 117.5 163.75 122.537 163.75 128.75C163.75 134.963 168.787 140 175 140Z" stroke="#C4C4C4" stroke-width="1.25" stroke-miterlimit="10" stroke-linecap="round" stroke-linejoin="round"/>
<path d="M131.25 147.5V141.25" stroke="#C4C4C4" stroke-width="2.5" stroke-miterlimit="10" stroke-linecap="round" stroke-linejoin="round"/>
<path d="M193.75 147.5V141.25" stroke="#C4C4C4" stroke-width="2.5" stroke-miterlimit="10" stroke-linecap="round" stroke-linejoin="round"/>
<path d="M137.5 135H150" stroke="#C4C4C4" stroke-width="2.5" stroke-miterlimit="10" stroke-linecap="round" stroke-linejoin="round"/>
<path d="M137.5 128.75H150" stroke="#C4C4C4" stroke-width="2.5" stroke-miterlimit="10" stroke-linecap="round" stroke-linejoin="round"/>
<path d="M137.5 122.5H150" stroke="#C4C4C4" stroke-width="2.5" stroke-miterlimit="10" stroke-linecap="round" stroke-linejoin="round"/>
<path d="M175 136.88C179.49 136.88 183.13 133.24 183.13 128.75C183.13 124.26 179.49 120.62 175 120.62C170.51 120.62 166.87 124.26 166.87 128.75C166.87 133.24 170.51 136.88 175 136.88Z" stroke="#C4C4C4" stroke-width="1.25" stroke-miterlimit="10" stroke-linecap="round" stroke-linejoin="round"/>
<path d="M163.77 116.25H131.25C127.8 116.25 125 119.05 125 122.5V135C125 138.45 127.8 141.25 131.25 141.25H163.77C164.84 141.25 165.91 141.48 166.82 142.05C169.2 143.52 172 144.38 175 144.38C178 144.38 180.8 143.52 183.18 142.05C184.09 141.49 185.16 141.25 186.23 141.25H193.75C197.2 141.25 200 138.45 200 135V122.5C200 119.05 197.2 116.25 193.75 116.25H186.23C185.16 116.25 184.09 116.02 183.18 115.45C180.8 113.98 178 113.12 175 113.12C172 113.12 169.2 113.98 166.82 115.45C165.91 116.02 164.84 116.25 163.77 116.25Z" stroke="#C4C4C4" stroke-width="2.5" stroke-miterlimit="10" stroke-linecap="round" stroke-linejoin="round"/>
<path d="M112.5 150H212.5" stroke="#C4C4C4" stroke-width="5" stroke-miterlimit="10" stroke-linecap="round" stroke-linejoin="round"/>
<path d="M143.75 92.25H181.25C184.7 92.25 187.5 89.45 187.5 86V67.25C187.5 63.8 184.7 61 181.25 61H177.93C176.08 61 174.32 60.18 173.13 58.75L170.63 55.75C169.44 54.33 167.68 53.5 165.83 53.5H159.18C157.33 53.5 155.57 54.32 154.38 55.75L151.88 58.75C150.69 60.17 148.93 61 147.08 61H143.76C140.31 61 137.51 63.8 137.51 67.25V86C137.5 89.45 140.3 92.25 143.75 92.25Z" stroke="#C4C4C4" stroke-width="2.5" stroke-miterlimit="10" stroke-linecap="round" stroke-linejoin="round"/>
<path d="M162.5 88.5C169.404 88.5 175 82.9036 175 76C175 69.0964 169.404 63.5 162.5 63.5C155.596 63.5 150 69.0964 150 76C150 82.9036 155.596 88.5 162.5 88.5Z" stroke="#C4C4C4" stroke-width="1.25" stroke-miterlimit="10" stroke-linecap="round" stroke-linejoin="round"/>
<path d="M162.5 85.38C167.68 85.38 171.88 81.1804 171.88 76C171.88 70.8196 167.68 66.62 162.5 66.62C157.32 66.62 153.12 70.8196 153.12 76C153.12 81.1804 157.32 85.38 162.5 85.38Z" stroke="#C4C4C4" stroke-width="1.25" stroke-miterlimit="10" stroke-linecap="round" stroke-linejoin="round"/>
<path d="M162.5 212.5C176.307 212.5 187.5 201.307 187.5 187.5C187.5 173.693 176.307 162.5 162.5 162.5C148.693 162.5 137.5 173.693 137.5 187.5C137.5 201.307 148.693 212.5 162.5 212.5Z" stroke="#C4C4C4" stroke-width="2.5" stroke-miterlimit="10"/>
<path d="M149.23 166.59C160.93 166.68 181.6 191.81 178.84 206.41" stroke="#C4C4C4" stroke-width="1.25" stroke-miterlimit="10"/>
<path d="M143.12 203.51C140.6 191.55 167.59 166.27 178.56 168.53" stroke="#C4C4C4" stroke-width="1.25" stroke-miterlimit="10"/>
<path d="M160.59 212.5C161.2 185.42 162.7 183.38 167.86 179.07C171.32 176.18 179.07 175.02 187.38 185.21" stroke="#C4C4C4" stroke-width="1.25" stroke-miterlimit="10"/>
<path d="M138.38 181.44C143.07 176.05 151.31 176.6 158.82 170.61C162.82 167.42 164.32 166.12 164.5 162.5" stroke="#C4C4C4" stroke-width="1.25" stroke-miterlimit="10"/>
<path d="M85 95L91.16 101.16C96.04 106.04 103.96 106.04 108.84 101.16L120 90" stroke="#C4C4C4" stroke-width="15" stroke-miterlimit="10" stroke-linecap="round" stroke-linejoin="round"/>
<path d="M60 95L30 125" stroke="#C4C4C4" stroke-width="15" stroke-miterlimit="10" stroke-linecap="round" stroke-linejoin="round"/>
<path d="M85 107.5C85 100.6 79.4 95 72.5 95C65.6 95 60 100.6 60 107.5V206.25V170C60 163.1 65.6 157.5 72.5 157.5C79.4 157.5 85 163.1 85 170V206.25V107.5Z" stroke="#C4C4C4" stroke-width="20" stroke-miterlimit="10" stroke-linecap="round" stroke-linejoin="round"/>
<path d="M72.5 107.5V157.5" stroke="#C4C4C4" stroke-width="20" stroke-miterlimit="10" stroke-linecap="round" stroke-linejoin="round"/>
<path d="M85 107.5C85 100.6 79.4 95 72.5 95C65.6 95 60 100.6 60 107.5V206.25V170C60 163.1 65.6 157.5 72.5 157.5C79.4 157.5 85 163.1 85 170V206.25V107.5Z" stroke="#E3E3E3" stroke-width="15" stroke-miterlimit="10" stroke-linecap="round" stroke-linejoin="round"/>
<path d="M72.5 107.5V157.5" stroke="#E3E3E3" stroke-width="12.5" stroke-miterlimit="10" stroke-linecap="round" stroke-linejoin="round"/>
<path d="M60 95L30 125" stroke="#E3E3E3" stroke-width="10" stroke-miterlimit="10" stroke-linecap="round" stroke-linejoin="round"/>
<path d="M85 95L91.16 101.16C96.04 106.04 103.96 106.04 108.84 101.16L120 90" stroke="#E3E3E3" stroke-width="10" stroke-miterlimit="10" stroke-linecap="round" stroke-linejoin="round"/>
<path d="M72.5 90C82.8553 90 91.25 81.6053 91.25 71.25C91.25 60.8947 82.8553 52.5 72.5 52.5C62.1447 52.5 53.75 60.8947 53.75 71.25C53.75 81.6053 62.1447 90 72.5 90Z" stroke="white" stroke-width="7" stroke-miterlimit="10" stroke-linejoin="round"/>
<path d="M72.5 90C82.8553 90 91.25 81.6053 91.25 71.25C91.25 60.8947 82.8553 52.5 72.5 52.5C62.1447 52.5 53.75 60.8947 53.75 71.25C53.75 81.6053 62.1447 90 72.5 90Z" fill="#E3E3E3" stroke="#C4C4C4" stroke-width="2.5" stroke-miterlimit="10"/>
</svg>
