<svg width="250" height="250" viewBox="0 0 250 250" fill="none" xmlns="http://www.w3.org/2000/svg">
<path d="M125 175L175 100" stroke="#A6A6A6" stroke-width="3.75" stroke-miterlimit="10" stroke-linecap="round" stroke-linejoin="round"/>
<path d="M200 175H50C43.1 175 37.5 169.4 37.5 162.5V50C37.5 43.1 43.1 37.5 50 37.5H200C206.9 37.5 212.5 43.1 212.5 50V162.5C212.5 169.4 206.9 175 200 175Z" stroke="#A6A6A6" stroke-width="5" stroke-miterlimit="10" stroke-linecap="round" stroke-linejoin="round"/>
<path d="M62.5 75H187.5" stroke="#A6A6A6" stroke-width="2.5" stroke-miterlimit="10" stroke-linecap="round" stroke-linejoin="round"/>
<path d="M62.5 100H150" stroke="#A6A6A6" stroke-width="2.5" stroke-miterlimit="10" stroke-linecap="round" stroke-linejoin="round"/>
<path d="M95.69 165.49C83.64 172.43 75 190.83 75 212.5H137.5C137.5 190.83 128.86 172.43 116.81 165.49C121.75 162.11 125 156.44 125 150C125 139.64 116.61 131.25 106.25 131.25C95.89 131.25 87.5 139.64 87.5 150C87.5 156.44 90.75 162.11 95.69 165.49Z" fill="#D4D4D4" stroke="#A6A6A6" stroke-width="5" stroke-miterlimit="10" stroke-linejoin="round"/>
<path d="M64.76 179.11C70.83 185.32 75 197.92 75 212.5H37.5C37.5 197.92 41.67 185.32 47.74 179.11C45.3 176.83 43.75 173.6 43.75 170C43.75 163.1 49.35 157.5 56.25 157.5C63.15 157.5 68.75 163.1 68.75 170C68.75 173.61 67.2 176.83 64.76 179.11Z" fill="#D4D4D4" stroke="#A6A6A6" stroke-width="5" stroke-miterlimit="10" stroke-linejoin="round"/>
<path d="M147.74 179.11C141.67 185.31 137.5 197.92 137.5 212.5H175C175 197.92 170.83 185.32 164.76 179.11C167.2 176.83 168.75 173.6 168.75 170C168.75 163.1 163.15 157.5 156.25 157.5C149.35 157.5 143.75 163.1 143.75 170C143.75 173.61 145.3 176.83 147.74 179.11Z" fill="#D4D4D4" stroke="#A6A6A6" stroke-width="5" stroke-miterlimit="10" stroke-linejoin="round"/>
<path d="M185.24 179.11C179.17 185.31 175 197.92 175 212.5H212.5C212.5 197.92 208.33 185.32 202.26 179.11C204.7 176.83 206.25 173.6 206.25 170C206.25 163.1 200.65 157.5 193.75 157.5C186.85 157.5 181.25 163.1 181.25 170C181.25 173.61 182.8 176.83 185.24 179.11Z" fill="#D4D4D4" stroke="#A6A6A6" stroke-width="5" stroke-miterlimit="10" stroke-linejoin="round"/>
<path d="M114.38 201.25H117.51C119.24 201.25 120.63 202.65 120.63 204.37C120.63 206.1 119.23 207.49 117.51 207.49H114.38" stroke="#A6A6A6" stroke-width="1.25" stroke-miterlimit="10" stroke-linecap="round" stroke-linejoin="round"/>
<path d="M96.88 200.25V205.25C96.88 208.7 99.68 211.5 103.13 211.5H109.38C112.83 211.5 115.63 208.7 115.63 205.25V200.25C115.63 199.56 115.07 199 114.38 199H98.13C97.43 199 96.88 199.56 96.88 200.25Z" fill="white" stroke="#A6A6A6" stroke-width="2.5" stroke-miterlimit="10" stroke-linecap="round" stroke-linejoin="round"/>
<path d="M100.86 195.72L101.69 194.07C102.35 192.75 102.35 191.2 101.69 189.88L101.44 189.39C100.78 188.07 100.78 186.52 101.44 185.2L102.27 183.55" stroke="#A6A6A6" stroke-width="1.25" stroke-miterlimit="10" stroke-linecap="round" stroke-linejoin="round"/>
<path d="M110.23 195.72L111.06 194.07C111.72 192.75 111.72 191.2 111.06 189.88L110.81 189.39C110.15 188.07 110.15 186.52 110.81 185.2L111.64 183.55" stroke="#A6A6A6" stroke-width="1.25" stroke-miterlimit="10" stroke-linecap="round" stroke-linejoin="round"/>
<path d="M105.55 195.72L106.38 194.07C107.04 192.75 107.04 191.2 106.38 189.88L106.13 189.39C105.47 188.07 105.47 186.52 106.13 185.2L106.96 183.55" stroke="#A6A6A6" stroke-width="1.25" stroke-miterlimit="10" stroke-linecap="round" stroke-linejoin="round"/>
</svg>
