<svg id="_1" data-name="1" xmlns="http://www.w3.org/2000/svg" viewBox="0 0 250 250"><defs><style>.cls-1,.cls-2,.cls-5,.cls-6{fill:none;}.cls-1,.cls-2,.cls-3,.cls-4,.cls-5{stroke:#a195b6;stroke-linejoin:round;}.cls-1,.cls-2,.cls-3,.cls-5{stroke-linecap:round;}.cls-1{stroke-width:3.75px;}.cls-2,.cls-4{stroke-width:5px;}.cls-3{fill:#fff;stroke-width:2.5px;}.cls-4{fill:#c0b9ce;}.cls-5{stroke-width:1.25px;}</style></defs><line class="cls-1" x1="125" y1="175" x2="175" y2="100"/><rect class="cls-2" x="37.5" y="37.5" width="175" height="137.5" rx="12.5"/><line class="cls-3" x1="62.5" y1="75" x2="187.5" y2="75"/><line class="cls-3" x1="62.5" y1="100" x2="150" y2="100"/><path class="cls-4" d="M95.69,165.49c-12,6.94-20.69,25.34-20.69,47h62.5c0-21.67-8.64-40.07-20.69-47a18.75,18.75,0,1,0-21.12,0Z"/><path class="cls-4" d="M64.76,179.11C70.83,185.32,75,197.92,75,212.5H37.5c0-14.58,4.17-27.18,10.24-33.39a12.5,12.5,0,1,1,17,0Z"/><path class="cls-4" d="M147.74,179.11c-6.07,6.21-10.24,18.81-10.24,33.39H175c0-14.58-4.17-27.18-10.24-33.39a12.5,12.5,0,1,0-17,0Z"/><path class="cls-4" d="M185.24,179.11C179.17,185.32,175,197.92,175,212.5h37.5c0-14.58-4.17-27.18-10.24-33.39a12.5,12.5,0,1,0-17,0Z"/><path class="cls-5" d="M114.38,201.25h3.12a3.13,3.13,0,0,1,3.13,3.12h0a3.13,3.13,0,0,1-3.13,3.12h-3.12"/><path class="cls-3" d="M96.88,200.25v5a6.25,6.25,0,0,0,6.25,6.25h6.25a6.25,6.25,0,0,0,6.25-6.25v-5a1.25,1.25,0,0,0-1.25-1.25H98.13A1.24,1.24,0,0,0,96.88,200.25Z"/><path class="cls-5" d="M100.86,195.72l.83-1.65a4.7,4.7,0,0,0,0-4.2l-.25-.49a4.7,4.7,0,0,1,0-4.2l.83-1.65"/><path class="cls-5" d="M110.23,195.72l.83-1.65a4.7,4.7,0,0,0,0-4.2l-.25-.49a4.7,4.7,0,0,1,0-4.2l.83-1.65"/><path class="cls-5" d="M105.55,195.72l.82-1.65a4.7,4.7,0,0,0,0-4.2l-.24-.49a4.7,4.7,0,0,1,0-4.2l.82-1.65"/><rect class="cls-6" width="250" height="250"/></svg>