<svg width="270" height="270" viewBox="0 0 270 270" fill="none" xmlns="http://www.w3.org/2000/svg">
<rect x="5" y="5" width="260" height="260" rx="35" fill="white" stroke="white" stroke-width="10"/>
<rect x="15" y="15" width="240" height="240" rx="25" fill="white" stroke="#D6C0E9" stroke-width="10"/>
<path d="M135 185L185 110" stroke="#5800A6" stroke-width="3.75" stroke-miterlimit="10" stroke-linecap="round" stroke-linejoin="round"/>
<path d="M210 185H60C53.1 185 47.5 179.4 47.5 172.5V60C47.5 53.1 53.1 47.5 60 47.5H210C216.9 47.5 222.5 53.1 222.5 60V172.5C222.5 179.4 216.9 185 210 185Z" stroke="#5800A6" stroke-width="5" stroke-miterlimit="10" stroke-linecap="round" stroke-linejoin="round"/>
<path d="M72.5 85H197.5" stroke="#5800A6" stroke-width="2.5" stroke-miterlimit="10" stroke-linecap="round" stroke-linejoin="round"/>
<path d="M72.5 110H160" stroke="#5800A6" stroke-width="2.5" stroke-miterlimit="10" stroke-linecap="round" stroke-linejoin="round"/>
<path d="M105.69 175.49C93.64 182.43 85 200.83 85 222.5H147.5C147.5 200.83 138.86 182.43 126.81 175.49C131.75 172.11 135 166.44 135 160C135 149.64 126.61 141.25 116.25 141.25C105.89 141.25 97.5 149.64 97.5 160C97.5 166.44 100.75 172.11 105.69 175.49Z" fill="#AC80D3" stroke="#5800A6" stroke-width="5" stroke-miterlimit="10" stroke-linejoin="round"/>
<path d="M74.76 189.11C80.83 195.32 85 207.92 85 222.5H47.5C47.5 207.92 51.67 195.32 57.74 189.11C55.3 186.83 53.75 183.6 53.75 180C53.75 173.1 59.35 167.5 66.25 167.5C73.15 167.5 78.75 173.1 78.75 180C78.75 183.61 77.2 186.83 74.76 189.11Z" fill="#AC80D3" stroke="#5800A6" stroke-width="5" stroke-miterlimit="10" stroke-linejoin="round"/>
<path d="M157.74 189.11C151.67 195.31 147.5 207.92 147.5 222.5H185C185 207.92 180.83 195.32 174.76 189.11C177.2 186.83 178.75 183.6 178.75 180C178.75 173.1 173.15 167.5 166.25 167.5C159.35 167.5 153.75 173.1 153.75 180C153.75 183.61 155.3 186.83 157.74 189.11Z" fill="#AC80D3" stroke="#5800A6" stroke-width="5" stroke-miterlimit="10" stroke-linejoin="round"/>
<path d="M195.24 189.11C189.17 195.31 185 207.92 185 222.5H222.5C222.5 207.92 218.33 195.32 212.26 189.11C214.7 186.83 216.25 183.6 216.25 180C216.25 173.1 210.65 167.5 203.75 167.5C196.85 167.5 191.25 173.1 191.25 180C191.25 183.61 192.8 186.83 195.24 189.11Z" fill="#AC80D3" stroke="#5800A6" stroke-width="5" stroke-miterlimit="10" stroke-linejoin="round"/>
<path d="M124.38 211.25H127.51C129.24 211.25 130.63 212.65 130.63 214.37C130.63 216.1 129.23 217.49 127.51 217.49H124.38" stroke="#5800A6" stroke-width="1.25" stroke-miterlimit="10" stroke-linecap="round" stroke-linejoin="round"/>
<path d="M106.88 210.25V215.25C106.88 218.7 109.68 221.5 113.13 221.5H119.38C122.83 221.5 125.63 218.7 125.63 215.25V210.25C125.63 209.56 125.07 209 124.38 209H108.13C107.43 209 106.88 209.56 106.88 210.25Z" fill="white" stroke="#5800A6" stroke-width="2.5" stroke-miterlimit="10" stroke-linecap="round" stroke-linejoin="round"/>
<path d="M110.86 205.72L111.69 204.07C112.35 202.75 112.35 201.2 111.69 199.88L111.44 199.39C110.78 198.07 110.78 196.52 111.44 195.2L112.27 193.55" stroke="#5800A6" stroke-width="1.25" stroke-miterlimit="10" stroke-linecap="round" stroke-linejoin="round"/>
<path d="M120.23 205.72L121.06 204.07C121.72 202.75 121.72 201.2 121.06 199.88L120.81 199.39C120.15 198.07 120.15 196.52 120.81 195.2L121.64 193.55" stroke="#5800A6" stroke-width="1.25" stroke-miterlimit="10" stroke-linecap="round" stroke-linejoin="round"/>
<path d="M115.55 205.72L116.38 204.07C117.04 202.75 117.04 201.2 116.38 199.88L116.13 199.39C115.47 198.07 115.47 196.52 116.13 195.2L116.96 193.55" stroke="#5800A6" stroke-width="1.25" stroke-miterlimit="10" stroke-linecap="round" stroke-linejoin="round"/>
</svg>
