<svg width="75" height="75" viewBox="0 0 75 75" fill="none" xmlns="http://www.w3.org/2000/svg">
<path d="M75 37.5C75 58.2107 58.2107 75 37.5 75C16.7893 75 0 58.2107 0 37.5C0 16.7893 16.7893 0 37.5 0C58.2107 0 75 16.7893 75 37.5Z" fill="#FF2727"/>
<path d="M33.3333 18.3333C33.3333 16.0321 35.1988 14.1667 37.5 14.1667C39.8012 14.1667 41.6667 16.0321 41.6667 18.3333V43.3333C41.6667 45.6345 39.8012 47.5 37.5 47.5C35.1988 47.5 33.3333 45.6345 33.3333 43.3333V18.3333Z" fill="white"/>
<path d="M41.6667 55.8333C41.6667 58.1345 39.8012 60 37.5 60C35.1988 60 33.3333 58.1345 33.3333 55.8333C33.3333 53.5321 35.1988 51.6667 37.5 51.6667C39.8012 51.6667 41.6667 53.5321 41.6667 55.8333Z" fill="white"/>
</svg>
