<svg width="50" height="87" viewBox="0 0 50 87" fill="none" xmlns="http://www.w3.org/2000/svg">
<path d="M17.848 61.416V63.24C17.848 65.976 18.4 67.176 21.184 67.176H22.576C23.128 67.176 23.776 67.152 24.184 66.96C24.064 66.168 23.992 64.968 23.944 64.104C23.584 64.224 22.936 64.296 22.528 64.296H21.52C21.184 64.296 21.136 63.984 21.136 63.288V58.2H11.968V60.768C11.968 62.352 11.68 63.96 8.752 65.136C9.376 65.64 10.624 67.008 11.032 67.68C14.224 66.24 15.088 63.768 15.208 61.416H17.848ZM9.328 61.392C8.488 60.336 6.64 58.752 5.344 57.696L3.112 59.808C4.432 60.984 6.184 62.688 6.952 63.792L9.328 61.392ZM7.672 73.152V64.8H1.72V68.136H4.312V74.616C4.312 75.768 3.688 76.656 3.112 77.088C3.688 77.736 4.552 79.2 4.816 80.04C5.272 79.392 6.16 78.6 10.72 74.496C10.288 73.848 9.688 72.528 9.4 71.592L7.672 73.152ZM18.736 71.04C18.112 72.096 17.344 73.008 16.432 73.8C15.424 72.984 14.584 72.072 13.936 71.04H18.736ZM21.04 67.68L20.488 67.8H10.096V71.04H12.16L10.744 71.52C11.56 73.056 12.52 74.4 13.648 75.552C12.04 76.344 10.168 76.872 8.104 77.184C8.68 77.928 9.376 79.32 9.688 80.208C12.184 79.656 14.416 78.888 16.336 77.784C18.088 78.888 20.104 79.728 22.456 80.28C22.888 79.344 23.824 77.928 24.544 77.184C22.576 76.848 20.8 76.296 19.264 75.552C21.04 73.824 22.36 71.544 23.176 68.568L21.04 67.68ZM32.008 76.68H41.776V77.28H32.008V76.68ZM41.776 69.768V70.368H32.008V69.768H41.776ZM32.008 74.304H41.776V75H32.008V74.304ZM41.776 72.672H32.008V72.024H41.776V72.672ZM32.728 61.536H30.688V60.576H32.728V61.536ZM35.896 60.576H37.936V61.536H35.896V60.576ZM41.104 60.576H43.192V61.536H41.104V60.576ZM45.232 77.28V67.728H38.104L38.224 67.056H47.152V64.56H38.56L38.656 63.816H46.696V58.32H27.376V63.816H35.104L35.08 64.56H26.512V67.056H34.888L34.816 67.728H28.72V77.28H26.128V79.68H47.968V77.28H45.232Z" fill="#0087A9"/>
<path d="M25 50C38.8071 50 50 38.8071 50 25C50 11.1929 38.8071 0 25 0C11.1929 0 0 11.1929 0 25C0 38.8071 11.1929 50 25 50Z" fill="#0087A9"/>
<path d="M25 8C26.9778 8 28.9112 8.58649 30.5557 9.6853C32.2002 10.7841 33.4819 12.3459 34.2388 14.1732C34.9957 16.0004 35.1937 18.0111 34.8079 19.9509C34.422 21.8907 33.4696 23.6725 32.0711 25.0711C30.6725 26.4696 28.8907 27.422 26.9509 27.8079C25.0111 28.1937 23.0004 27.9957 21.1732 27.2388C19.3459 26.4819 17.7841 25.2002 16.6853 23.5557C15.5865 21.9112 15 19.9778 15 18C15 15.3478 16.0536 12.8043 17.9289 10.9289C19.8043 9.05357 22.3478 8 25 8ZM25 6.5C22.7255 6.5 20.5021 7.17446 18.6109 8.4381C16.7198 9.70174 15.2458 11.4978 14.3754 13.5991C13.505 15.7005 13.2772 18.0128 13.721 20.2435C14.1647 22.4743 15.26 24.5234 16.8683 26.1317C18.4766 27.74 20.5257 28.8353 22.7565 29.279C24.9872 29.7228 27.2995 29.495 29.4009 28.6246C31.5022 27.7542 33.2983 26.2802 34.5619 24.3891C35.8255 22.4979 36.5 20.2745 36.5 18C36.4974 14.9508 35.2849 12.0273 33.1288 9.8712C30.9727 7.7151 28.0492 6.50265 25 6.5Z" fill="#F0F0F0"/>
<path d="M8.82007 36.69C9.10007 36.69 24.1701 25.11 41.1801 36.69" stroke="white" stroke-width="3" stroke-miterlimit="10" stroke-linecap="round"/>
<path d="M8.82007 36.69C9.10007 36.69 24.1701 25.11 41.1801 36.69" stroke="#0087A9" stroke-width="1.5" stroke-miterlimit="10" stroke-linecap="round"/>
</svg>
