<svg width="50" height="87" viewBox="0 0 50 87" fill="none" xmlns="http://www.w3.org/2000/svg">
<path d="M14.464 60.456H18.688V64.296C18.688 66.072 19.048 66.768 20.68 66.768H22.48C22.96 66.768 23.44 66.744 23.752 66.648C23.68 66.24 23.608 65.568 23.584 65.112C23.296 65.184 22.792 65.232 22.456 65.232H20.8C20.44 65.232 20.368 65.016 20.368 64.344V58.776H12.784V61.416C12.784 63.192 12.256 65.184 9.112 66.624C9.448 66.888 10.048 67.584 10.264 67.944C13.696 66.288 14.464 63.696 14.464 61.464V60.456ZM8.824 61.92C8.056 60.96 6.424 59.424 5.128 58.368L3.976 59.448C5.272 60.576 6.856 62.184 7.624 63.192L8.824 61.92ZM7.216 75.696V65.424H2.128V67.128H5.488V75.696C5.488 76.776 4.744 77.568 4.288 77.856C4.624 78.192 5.08 78.936 5.248 79.344C5.632 78.912 6.28 78.384 10.504 75.264C10.288 74.928 10 74.256 9.856 73.8L7.216 75.696ZM20.296 70.128C19.432 72.024 18.136 73.608 16.552 74.88C14.968 73.56 13.672 71.952 12.808 70.128H20.296ZM21.448 68.376L21.136 68.448H10.24V70.128H11.464L11.128 70.248C12.112 72.432 13.456 74.328 15.136 75.888C13.36 77.016 11.32 77.808 9.208 78.288C9.544 78.696 9.952 79.392 10.096 79.872C12.376 79.224 14.584 78.312 16.504 76.992C18.304 78.336 20.488 79.32 22.936 79.92C23.176 79.416 23.632 78.72 24.04 78.336C21.736 77.832 19.672 77.016 17.944 75.888C19.984 74.16 21.616 71.856 22.552 68.88L21.448 68.376ZM31.312 76.32H42.568V77.784H31.312V76.32ZM42.568 68.976V70.32H31.312V68.976H42.568ZM31.312 73.824H42.568V75.264H31.312V73.824ZM42.568 72.768H31.312V71.4H42.568V72.768ZM35.032 60.12H38.968V62.28H35.032V60.12ZM33.376 62.28H29.584V60.12H33.376V62.28ZM40.6 60.12H44.632V62.28H40.6V60.12ZM44.32 77.784V67.776H36.856C36.976 67.32 37.072 66.864 37.192 66.336H47.08V64.944H37.456C37.552 64.488 37.648 64.008 37.72 63.576H46.384V58.824H27.88V63.576H35.92C35.872 64.008 35.8 64.488 35.728 64.944H26.704V66.336H35.488C35.392 66.864 35.296 67.32 35.2 67.776H29.632V77.784H26.464V79.128H47.608V77.784H44.32Z" fill="#898989"/>
<g clip-path="url(#clip0_148_44)">
<path d="M25 2.5C29.4501 2.5 33.8002 3.8196 37.5003 6.29193C41.2004 8.76427 44.0843 12.2783 45.7873 16.3896C47.4903 20.501 47.9358 25.025 47.0677 29.3895C46.1995 33.7541 44.0566 37.7632 40.9099 40.9099C37.7632 44.0566 33.7541 46.1995 29.3895 47.0677C25.025 47.9358 20.501 47.4903 16.3896 45.7873C12.2783 44.0843 8.76426 41.2004 6.29193 37.5003C3.8196 33.8002 2.5 29.4501 2.5 25C2.50529 19.0343 4.87752 13.3144 9.09594 9.09595C13.3144 4.87753 19.0343 2.5053 25 2.5ZM25 0C20.0555 0 15.222 1.46622 11.1107 4.21326C6.99951 6.96029 3.7952 10.8648 1.90301 15.4329C0.0108168 20.0011 -0.484267 25.0277 0.480364 29.8773C1.44499 34.7268 3.82601 39.1814 7.32233 42.6777C10.8186 46.174 15.2732 48.555 20.1227 49.5196C24.9723 50.4843 29.9989 49.9892 34.5671 48.097C39.1352 46.2048 43.0397 43.0005 45.7867 38.8893C48.5338 34.778 50 29.9445 50 25C50 18.3696 47.3661 12.0107 42.6777 7.32233C37.9893 2.63392 31.6304 0 25 0V0Z" fill="#898989"/>
<path d="M25 10.5C26.4834 10.5 27.9334 10.9399 29.1668 11.764C30.4002 12.5881 31.3614 13.7594 31.9291 15.1299C32.4968 16.5003 32.6453 18.0083 32.3559 19.4632C32.0665 20.918 31.3522 22.2544 30.3033 23.3033C29.2544 24.3522 27.918 25.0665 26.4632 25.3559C25.0083 25.6453 23.5003 25.4968 22.1299 24.9291C20.7594 24.3614 19.5881 23.4001 18.764 22.1668C17.9399 20.9334 17.5 19.4834 17.5 18C17.5 16.0109 18.2902 14.1032 19.6967 12.6967C21.1032 11.2902 23.0109 10.5 25 10.5ZM25 8C23.0222 8 21.0888 8.58649 19.4443 9.6853C17.7998 10.7841 16.5181 12.3459 15.7612 14.1732C15.0043 16.0004 14.8063 18.0111 15.1922 19.9509C15.578 21.8907 16.5304 23.6725 17.9289 25.0711C19.3275 26.4696 21.1093 27.422 23.0491 27.8079C24.9889 28.1937 26.9996 27.9957 28.8268 27.2388C30.6541 26.4819 32.2159 25.2002 33.3147 23.5557C34.4135 21.9112 35 19.9778 35 18C35 15.3478 33.9464 12.8043 32.0711 10.9289C30.1957 9.05357 27.6522 8 25 8Z" fill="#898989"/>
<path d="M8.82001 36.69C9.10001 36.69 24.17 25.11 41.18 36.69" stroke="#0087A9" stroke-width="2.5" stroke-miterlimit="10" stroke-linecap="round"/>
</g>
<defs>
<clipPath id="clip0_148_44">
<rect width="50" height="50" fill="white"/>
</clipPath>
</defs>
</svg>
