<svg width="600" height="638" viewBox="0 0 600 638" fill="none" xmlns="http://www.w3.org/2000/svg">
<g opacity="0.6" clip-path="url(#clip0_155_150)">
<path d="M382.592 634.655V342.755C382.592 334.105 379.156 325.81 373.04 319.694C366.924 313.578 358.628 310.142 349.979 310.142C341.329 310.142 333.034 313.578 326.918 319.694C320.802 325.81 317.366 334.105 317.366 342.755V634.655C339.039 637.11 360.919 637.11 382.592 634.655" fill="#D49FCE"/>
<path d="M402.556 176.085L447.125 28.763C428.759 23.1207 409.93 19.1104 390.859 16.779L371.539 169.379C382.062 170.66 392.444 172.905 402.556 176.085" fill="#82CAEC"/>
<path d="M299.334 175.511C309.474 172.449 319.873 170.32 330.4 169.148L311.22 16.485C292.137 18.7155 273.288 22.6226 254.891 28.161L299.334 175.511Z" fill="#82CAEC"/>
<path d="M235.858 210.518C243.879 203.585 252.513 197.395 261.653 192.024L182 60.34C165.503 70.1947 149.899 81.4726 135.366 94.045L235.858 210.518Z" fill="#82CAEC"/>
<path d="M191.94 268.247C196.475 258.656 201.875 249.5 208.075 240.891L81.788 152.985C70.6595 168.669 60.9295 185.299 52.71 202.685L191.94 268.247Z" fill="#82CAEC"/>
<path d="M175.378 338.94C175.588 328.323 176.759 317.747 178.878 307.342L27.7411 278.418C24.0202 297.291 21.959 316.453 21.5811 335.685L175.378 338.94Z" fill="#82CAEC"/>
<path d="M179.312 380.002L29.512 415.051C33.715 433.838 39.5711 452.217 47.012 469.973L188.909 410.361C184.798 400.556 181.599 390.394 179.354 380.002" fill="#82CAEC"/>
<path d="M209.3 446.285L86.632 539.252C98.1915 554.653 111.074 569.016 125.132 582.176L230.44 470.085C222.687 462.808 215.612 454.842 209.3 446.285" fill="#82CAEC"/>
<path d="M464.268 210.791C456.25 203.858 447.619 197.668 438.48 192.297L518.126 60.585C534.621 70.4397 550.225 81.7151 564.76 94.283L464.268 210.791Z" fill="#82CAEC"/>
<path d="M508.2 268.52C503.66 258.936 498.254 249.787 492.051 241.185L618.338 153.286C629.47 168.968 639.2 185.599 647.416 202.986L508.2 268.52Z" fill="#82CAEC"/>
<path d="M524.748 339.185C524.542 328.566 523.37 317.987 521.248 307.58L672.378 278.663C676.099 297.533 678.16 316.693 678.538 335.923L524.748 339.185Z" fill="#82CAEC"/>
<path d="M520.8 380.275L670.6 415.324C666.401 434.11 660.545 452.487 653.1 470.239L511.259 410.634C515.365 400.829 518.559 390.666 520.8 380.275" fill="#82CAEC"/>
<path d="M490.84 446.53L613.494 539.518C601.936 554.923 589.054 569.288 574.994 582.449L469.7 470.33C477.461 463.057 484.541 455.09 490.854 446.53" fill="#82CAEC"/>
</g>
<defs>
<clipPath id="clip0_155_150">
<rect width="700" height="637.763" fill="white"/>
</clipPath>
</defs>
</svg>
