<svg width="270" height="270" viewBox="0 0 270 270" fill="none" xmlns="http://www.w3.org/2000/svg">
<rect x="5" y="5" width="260" height="260" rx="35" fill="white" stroke="white" stroke-width="10"/>
<rect x="15" y="15" width="240" height="240" rx="25" fill="white" stroke="#D1F1E9" stroke-width="10"/>
<path d="M122.5 221.25V110C122.5 106.55 125.3 103.75 128.75 103.75H216.25C219.7 103.75 222.5 106.55 222.5 110V221.25" stroke="#45C5A6" stroke-width="5" stroke-miterlimit="10" stroke-linecap="round" stroke-linejoin="round"/>
<path d="M95 105L101.16 111.16C106.04 116.04 113.96 116.04 118.84 111.16L130 100" stroke="white" stroke-width="20" stroke-miterlimit="10" stroke-linecap="round" stroke-linejoin="round"/>
<path d="M185 150C191.213 150 196.25 144.963 196.25 138.75C196.25 132.537 191.213 127.5 185 127.5C178.787 127.5 173.75 132.537 173.75 138.75C173.75 144.963 178.787 150 185 150Z" stroke="#45C5A6" stroke-width="1.25" stroke-miterlimit="10" stroke-linecap="round" stroke-linejoin="round"/>
<path d="M141.25 157.5V151.25" stroke="#45C5A6" stroke-width="2.5" stroke-miterlimit="10" stroke-linecap="round" stroke-linejoin="round"/>
<path d="M203.75 157.5V151.25" stroke="#45C5A6" stroke-width="2.5" stroke-miterlimit="10" stroke-linecap="round" stroke-linejoin="round"/>
<path d="M147.5 145H160" stroke="#45C5A6" stroke-width="2.5" stroke-miterlimit="10" stroke-linecap="round" stroke-linejoin="round"/>
<path d="M147.5 138.75H160" stroke="#45C5A6" stroke-width="2.5" stroke-miterlimit="10" stroke-linecap="round" stroke-linejoin="round"/>
<path d="M147.5 132.5H160" stroke="#45C5A6" stroke-width="2.5" stroke-miterlimit="10" stroke-linecap="round" stroke-linejoin="round"/>
<path d="M185 146.88C189.49 146.88 193.13 143.24 193.13 138.75C193.13 134.26 189.49 130.62 185 130.62C180.51 130.62 176.87 134.26 176.87 138.75C176.87 143.24 180.51 146.88 185 146.88Z" stroke="#45C5A6" stroke-width="1.25" stroke-miterlimit="10" stroke-linecap="round" stroke-linejoin="round"/>
<path d="M173.77 126.25H141.25C137.8 126.25 135 129.05 135 132.5V145C135 148.45 137.8 151.25 141.25 151.25H173.77C174.84 151.25 175.91 151.48 176.82 152.05C179.2 153.52 182 154.38 185 154.38C188 154.38 190.8 153.52 193.18 152.05C194.09 151.49 195.16 151.25 196.23 151.25H203.75C207.2 151.25 210 148.45 210 145V132.5C210 129.05 207.2 126.25 203.75 126.25H196.23C195.16 126.25 194.09 126.02 193.18 125.45C190.8 123.98 188 123.12 185 123.12C182 123.12 179.2 123.98 176.82 125.45C175.91 126.02 174.84 126.25 173.77 126.25Z" stroke="#45C5A6" stroke-width="2.5" stroke-miterlimit="10" stroke-linecap="round" stroke-linejoin="round"/>
<path d="M122.5 160H222.5" stroke="#45C5A6" stroke-width="5" stroke-miterlimit="10" stroke-linecap="round" stroke-linejoin="round"/>
<path d="M153.75 102.25H191.25C194.7 102.25 197.5 99.45 197.5 96V77.25C197.5 73.8 194.7 71 191.25 71H187.93C186.08 71 184.32 70.18 183.13 68.75L180.63 65.75C179.44 64.33 177.68 63.5 175.83 63.5H169.18C167.33 63.5 165.57 64.32 164.38 65.75L161.88 68.75C160.69 70.17 158.93 71 157.08 71H153.76C150.31 71 147.51 73.8 147.51 77.25V96C147.5 99.45 150.3 102.25 153.75 102.25Z" stroke="#45C5A6" stroke-width="2.5" stroke-miterlimit="10" stroke-linecap="round" stroke-linejoin="round"/>
<path d="M172.5 98.5C179.404 98.5 185 92.9036 185 86C185 79.0964 179.404 73.5 172.5 73.5C165.596 73.5 160 79.0964 160 86C160 92.9036 165.596 98.5 172.5 98.5Z" stroke="#45C5A6" stroke-width="1.25" stroke-miterlimit="10" stroke-linecap="round" stroke-linejoin="round"/>
<path d="M172.5 95.38C177.68 95.38 181.88 91.1804 181.88 86C181.88 80.8196 177.68 76.62 172.5 76.62C167.32 76.62 163.12 80.8196 163.12 86C163.12 91.1804 167.32 95.38 172.5 95.38Z" stroke="#45C5A6" stroke-width="1.25" stroke-miterlimit="10" stroke-linecap="round" stroke-linejoin="round"/>
<path d="M172.5 222.5C186.307 222.5 197.5 211.307 197.5 197.5C197.5 183.693 186.307 172.5 172.5 172.5C158.693 172.5 147.5 183.693 147.5 197.5C147.5 211.307 158.693 222.5 172.5 222.5Z" stroke="#45C5A6" stroke-width="2.5" stroke-miterlimit="10"/>
<path d="M159.23 176.59C170.93 176.68 191.6 201.81 188.84 216.41" stroke="#45C5A6" stroke-width="1.25" stroke-miterlimit="10"/>
<path d="M153.12 213.51C150.6 201.55 177.59 176.27 188.56 178.53" stroke="#45C5A6" stroke-width="1.25" stroke-miterlimit="10"/>
<path d="M170.59 222.5C171.2 195.42 172.7 193.38 177.86 189.07C181.32 186.18 189.07 185.02 197.38 195.21" stroke="#45C5A6" stroke-width="1.25" stroke-miterlimit="10"/>
<path d="M148.38 191.44C153.07 186.05 161.31 186.6 168.82 180.61C172.82 177.42 174.32 176.12 174.5 172.5" stroke="#45C5A6" stroke-width="1.25" stroke-miterlimit="10"/>
<path d="M95 105L101.16 111.16C106.04 116.04 113.96 116.04 118.84 111.16L130 100" stroke="#45C5A6" stroke-width="15" stroke-miterlimit="10" stroke-linecap="round" stroke-linejoin="round"/>
<path d="M70 105L40 135" stroke="#45C5A6" stroke-width="15" stroke-miterlimit="10" stroke-linecap="round" stroke-linejoin="round"/>
<path d="M95 117.5C95 110.6 89.4 105 82.5 105C75.6 105 70 110.6 70 117.5V216.25V180C70 173.1 75.6 167.5 82.5 167.5C89.4 167.5 95 173.1 95 180V216.25V117.5Z" stroke="#45C5A6" stroke-width="20" stroke-miterlimit="10" stroke-linecap="round" stroke-linejoin="round"/>
<path d="M82.5 117.5V167.5" stroke="#45C5A6" stroke-width="20" stroke-miterlimit="10" stroke-linecap="round" stroke-linejoin="round"/>
<path d="M95 117.5C95 110.6 89.4 105 82.5 105C75.6 105 70 110.6 70 117.5V216.25V180C70 173.1 75.6 167.5 82.5 167.5C89.4 167.5 95 173.1 95 180V216.25V117.5Z" stroke="#A2E2D3" stroke-width="15" stroke-miterlimit="10" stroke-linecap="round" stroke-linejoin="round"/>
<path d="M82.5 117.5V167.5" stroke="#A2E2D3" stroke-width="12.5" stroke-miterlimit="10" stroke-linecap="round" stroke-linejoin="round"/>
<path d="M70 105L40 135" stroke="#A2E2D3" stroke-width="10" stroke-miterlimit="10" stroke-linecap="round" stroke-linejoin="round"/>
<path d="M95 105L101.16 111.16C106.04 116.04 113.96 116.04 118.84 111.16L130 100" stroke="#A2E2D3" stroke-width="10" stroke-miterlimit="10" stroke-linecap="round" stroke-linejoin="round"/>
<path d="M82.5 100C92.8553 100 101.25 91.6053 101.25 81.25C101.25 70.8947 92.8553 62.5 82.5 62.5C72.1447 62.5 63.75 70.8947 63.75 81.25C63.75 91.6053 72.1447 100 82.5 100Z" stroke="white" stroke-width="7" stroke-miterlimit="10" stroke-linejoin="round"/>
<path d="M82.5 100C92.8553 100 101.25 91.6053 101.25 81.25C101.25 70.8947 92.8553 62.5 82.5 62.5C72.1447 62.5 63.75 70.8947 63.75 81.25C63.75 91.6053 72.1447 100 82.5 100Z" fill="#A2E2D3" stroke="#45C5A6" stroke-width="2.5" stroke-miterlimit="10"/>
</svg>
