<svg width="270" height="270" viewBox="0 0 270 270" fill="none" xmlns="http://www.w3.org/2000/svg">
<rect x="5" y="5" width="260" height="260" rx="35" fill="white" stroke="white" stroke-width="10"/>
<rect x="15" y="15" width="240" height="240" rx="25" fill="white" stroke="#C4CBE6" stroke-width="10"/>
<path d="M190 225H80C68.95 225 60 216.05 60 205V65C60 53.95 68.95 45 80 45H190C201.05 45 210 53.95 210 65V205C210 216.05 201.05 225 190 225Z" fill="#8896CD" stroke="#112C9A" stroke-width="5" stroke-miterlimit="10"/>
<path d="M190 215H80C74.48 215 70 210.52 70 205V65C70 59.48 74.48 55 80 55H190C195.52 55 200 59.48 200 65V205C200 210.52 195.52 215 190 215Z" fill="white" stroke="#112C9A" stroke-width="2" stroke-miterlimit="10"/>
<path d="M190 70H80C78.62 70 77.5 68.88 77.5 67.5V65C77.5 63.62 78.62 62.5 80 62.5H190C191.38 62.5 192.5 63.62 192.5 65V67.5C192.5 68.88 191.38 70 190 70Z" fill="#112C9A"/>
<path d="M87.5 142.5C91.6421 142.5 95 139.142 95 135C95 130.858 91.6421 127.5 87.5 127.5C83.3579 127.5 80 130.858 80 135C80 139.142 83.3579 142.5 87.5 142.5Z" fill="white" stroke="#112C9A" stroke-width="2" stroke-miterlimit="10"/>
<path d="M87.5 132.5V137.5" stroke="#112C9A" stroke-width="2" stroke-miterlimit="10"/>
<path d="M135 202.5C144.665 202.5 152.5 194.665 152.5 185C152.5 175.335 144.665 167.5 135 167.5C125.335 167.5 117.5 175.335 117.5 185C117.5 194.665 125.335 202.5 135 202.5Z" fill="#8896CD" stroke="#112C9A" stroke-width="2" stroke-miterlimit="10"/>
<path d="M152.5 185C152.5 194.66 144.66 202.5 135 202.5C125.34 202.5 117.5 194.66 117.5 185H152.5Z" fill="#112C9A"/>
<path d="M105.03 109.84C105.03 107.47 105.72 105.54 107.11 104.05C108.5 102.56 110.32 101.82 112.59 101.82C114.75 101.82 116.49 102.54 117.81 103.98C119.13 105.42 119.79 107.27 119.79 109.53C119.79 111.89 119.1 113.8 117.73 115.27C117.65 115.36 117.56 115.45 117.48 115.53L121.33 119.24H116.55L114.54 117.19C113.86 117.37 113.13 117.46 112.35 117.46C110.18 117.46 108.42 116.75 107.07 115.33C105.72 113.91 105.03 112.08 105.03 109.84ZM108.42 109.67C108.42 111.14 108.77 112.34 109.48 113.28C110.19 114.22 111.16 114.68 112.4 114.68C113.66 114.68 114.65 114.23 115.35 113.34C116.05 112.45 116.4 111.24 116.4 109.73C116.4 108.15 116.06 106.91 115.37 105.99C114.68 105.07 113.72 104.62 112.48 104.62C111.22 104.62 110.22 105.09 109.5 106.03C108.78 106.97 108.42 108.18 108.42 109.67Z" fill="#112C9A"/>
<path d="M138.53 115.53C136.95 116.81 135.13 117.45 133.05 117.45C131.32 117.45 129.94 117.04 128.93 116.22C127.92 115.4 127.41 114.28 127.41 112.85C127.41 110.87 128.63 109.41 131.06 108.46C129.84 107.5 129.22 106.45 129.22 105.31C129.22 104.25 129.63 103.4 130.44 102.78C131.25 102.16 132.35 101.84 133.74 101.84C135.01 101.84 136.04 102.15 136.84 102.76C137.64 103.37 138.04 104.16 138.04 105.12C138.04 106.66 137.14 107.8 135.33 108.56C136.72 109.19 137.94 110.27 138.98 111.81C140.06 110.45 140.6 108.8 140.6 106.85C140.6 106.31 140.53 105.82 140.39 105.39H143.1C143.24 105.77 143.31 106.24 143.31 106.8C143.31 109.38 142.34 111.72 140.39 113.81C141.15 114.62 141.87 115.03 142.56 115.03C143.25 115.03 143.87 114.89 144.44 114.61V117.02C143.72 117.31 142.95 117.46 142.12 117.46C140.84 117.45 139.65 116.81 138.53 115.53ZM137.15 113.52C136.03 111.73 134.61 110.48 132.89 109.77C131.37 110.47 130.6 111.46 130.6 112.73C130.6 113.43 130.84 113.99 131.32 114.41C131.8 114.83 132.43 115.05 133.2 115.05C134.65 115.05 135.96 114.54 137.15 113.52ZM133.39 107.35C134.61 106.9 135.23 106.23 135.23 105.33C135.23 104.92 135.08 104.59 134.79 104.33C134.5 104.07 134.14 103.95 133.74 103.95C133.26 103.95 132.86 104.09 132.54 104.37C132.22 104.65 132.06 104.99 132.06 105.39C132.05 106.18 132.5 106.83 133.39 107.35Z" fill="#112C9A"/>
<path d="M165.61 117.21H162.09L160.96 113.74H155.46L154.35 117.21H150.85L156.39 102.08H160.18L165.61 117.21ZM160.2 111.25L158.48 106.01C158.37 105.68 158.29 105.24 158.25 104.69H158.16C158.12 105.13 158.03 105.56 157.9 105.97L156.17 111.25H160.2V111.25Z" fill="#112C9A"/>
</svg>
