<svg id="_3" data-name="3" xmlns="http://www.w3.org/2000/svg" viewBox="0 0 250 250"><defs><style>.cls-1,.cls-6{fill:#c0c7d3;}.cls-1,.cls-2,.cls-4,.cls-5,.cls-6{stroke:#9ea7ba;stroke-miterlimit:10;}.cls-1{stroke-width:5px;}.cls-2{fill:#d6dde3;}.cls-2,.cls-4,.cls-5,.cls-6{stroke-width:2px;}.cls-3{fill:#9ea7ba;}.cls-4,.cls-7{fill:none;}.cls-5{fill:#fff;stroke-linecap:round;}</style></defs><rect class="cls-1" x="50" y="35" width="150" height="180" rx="20"/><rect class="cls-2" x="60" y="45" width="130" height="160" rx="10"/><rect class="cls-3" x="67.5" y="52.5" width="115" height="7.5" rx="2.5"/><circle class="cls-4" cx="77.5" cy="125" r="7.5"/><line class="cls-5" x1="77.5" y1="122.5" x2="77.5" y2="127.5"/><circle class="cls-6" cx="125" cy="175" r="17.5"/><path class="cls-3" d="M142.5,175a17.5,17.5,0,0,1-35,0Z"/><path class="cls-3" d="M95,99.84a8.14,8.14,0,0,1,2.07-5.78,7.15,7.15,0,0,1,5.49-2.23A6.77,6.77,0,0,1,107.81,94a7.89,7.89,0,0,1,2,5.55,8,8,0,0,1-2.07,5.74l-.25.27,3.85,3.71h-4.78l-2-2a8.48,8.48,0,0,1-2.19.27,7,7,0,0,1-5.28-2.13A7.69,7.69,0,0,1,95,99.84Zm3.39-.17a5.82,5.82,0,0,0,1.06,3.61,3.82,3.82,0,0,0,5.87,0,5.67,5.67,0,0,0,1.06-3.6,6.15,6.15,0,0,0-1-3.74,3.41,3.41,0,0,0-2.89-1.37,3.55,3.55,0,0,0-3,1.41A5.74,5.74,0,0,0,98.42,99.67Z"/><path class="cls-3" d="M128.53,105.53a8.46,8.46,0,0,1-5.48,1.92,6.42,6.42,0,0,1-4.12-1.22,4.1,4.1,0,0,1-1.53-3.38q0-3,3.65-4.39a4,4,0,0,1-1.83-3.16,3,3,0,0,1,1.21-2.53,5.26,5.26,0,0,1,3.3-.94,5,5,0,0,1,3.1.91,2.86,2.86,0,0,1,1.2,2.37c0,1.53-.9,2.68-2.71,3.43A8.77,8.77,0,0,1,129,101.8a7.69,7.69,0,0,0,1.63-5,4.72,4.72,0,0,0-.21-1.46h2.72a4.39,4.39,0,0,1,.2,1.41,10,10,0,0,1-2.92,7,3.17,3.17,0,0,0,2.17,1.22,4.22,4.22,0,0,0,1.88-.42V107a6.1,6.1,0,0,1-2.32.44A4.78,4.78,0,0,1,128.53,105.53Zm-1.38-2a9.11,9.11,0,0,0-4.26-3.75c-1.52.7-2.28,1.69-2.28,3a2.15,2.15,0,0,0,.71,1.69,2.71,2.71,0,0,0,1.88.64A5.92,5.92,0,0,0,127.15,103.52Zm-3.76-6.17c1.22-.45,1.83-1.12,1.83-2a1.22,1.22,0,0,0-.44-1,1.54,1.54,0,0,0-1-.38,1.75,1.75,0,0,0-1.2.41,1.31,1.31,0,0,0-.48,1A2.27,2.27,0,0,0,123.39,97.35Z"/><path class="cls-3" d="M155.61,107.21h-3.52L151,103.74h-5.5l-1.11,3.47h-3.5l5.54-15.13h3.79Zm-5.41-6L148.48,96a6.28,6.28,0,0,1-.24-1.32h-.09a5,5,0,0,1-.26,1.28l-1.73,5.28Z"/><rect class="cls-7" width="250" height="250"/></svg>